<?xml version="1.0" standalone="no"?><!DOCTYPE svg PUBLIC "-//W3C//DTD SVG 1.1//EN" "http://www.w3.org/Graphics/SVG/1.1/DTD/svg11.dtd"><svg height="1024" node-id="1" sillyvg="true" template-height="1024" template-width="1024" version="1.1" viewBox="0 0 1024 1024" width="1024" xmlns="http://www.w3.org/2000/svg" xmlns:xlink="http://www.w3.org/1999/xlink"><defs node-id="15"><linearGradient gradientUnits="objectBoundingBox" id="paint0_linear_1_281" node-id="8" spreadMethod="pad" x1="163.84" x2="737.28" y1="61.44" y2="1024"><stop offset="0" stop-color="#76aeff"></stop><stop offset="1" stop-color="#2f83f8"></stop></linearGradient><linearGradient gradientUnits="objectBoundingBox" id="paint1_linear_1_281" node-id="11" spreadMethod="pad" x1="488.727" x2="488.727" y1="512" y2="744.727"><stop offset="0" stop-color="#e6f1ff"></stop><stop offset="1" stop-color="#d3e6ff"></stop></linearGradient></defs><path d="M 0.00 372.36 C 0.00 166.71 166.71 0.00 372.36 0.00 L 651.64 0.00 C 857.29 0.00 1024.00 166.71 1024.00 372.36 L 1024.00 651.64 C 1024.00 857.29 857.29 1024.00 651.64 1024.00 L 372.36 1024.00 C 166.71 1024.00 0.00 857.29 0.00 651.64 L 0.00 372.36 Z" fill="url(#paint0_linear_1_281)" fill-rule="nonzero" node-id="30" stroke="none" target-height="1024" target-width="1024" target-x="0" target-y="0"></path><path d="M 325.82 593.46 C 325.82 548.47 362.29 512.00 407.27 512.00 L 686.55 512.00 C 731.53 512.00 768.00 548.47 768.00 593.46 L 768.00 663.27 C 768.00 708.26 731.53 744.73 686.55 744.73 L 407.27 744.73 C 362.29 744.73 325.82 708.26 325.82 663.27 L 325.82 593.46 Z" fill="url(#paint1_linear_1_281)" fill-opacity="0.8" fill-rule="nonzero" node-id="32" stroke="none" target-height="232.72699" target-width="442.182" target-x="325.818" target-y="512"></path><path d="M 256.00 349.09 C 256.00 310.53 287.26 279.27 325.82 279.27 L 628.36 279.27 C 666.92 279.27 698.18 310.53 698.18 349.09 L 698.18 674.91 C 698.18 713.47 666.92 744.73 628.36 744.73 L 325.82 744.73 C 287.26 744.73 256.00 713.47 256.00 674.91 L 256.00 349.09 Z" fill="#fbfdff" fill-rule="nonzero" node-id="34" stroke="none" target-height="465.45398" target-width="442.18207" target-x="256" target-y="279.273"></path><path d="M 558.54 374.68 C 570.11 374.68 579.50 384.07 579.50 395.64 C 579.50 407.20 570.11 416.59 558.54 416.59 L 395.64 416.59 C 384.07 416.59 374.68 407.20 374.68 395.64 C 374.68 384.07 384.07 374.68 395.64 374.68 L 558.54 374.68 Z" fill="#549afc" fill-rule="nonzero" node-id="36" stroke="none" target-height="41.908997" target-width="204.818" target-x="374.682" target-y="374.682"></path><path d="M 544.32 496.64 C 552.81 488.78 566.05 489.29 573.91 497.77 C 581.76 506.26 581.26 519.51 572.77 527.36 L 472.16 620.45 C 464.22 627.80 451.98 627.90 443.93 620.68 L 381.66 564.84 C 373.05 557.12 372.32 543.86 380.05 535.25 C 387.77 526.64 401.00 525.92 409.61 533.64 L 457.70 576.75 L 544.32 496.64 Z" fill="#4993fb" fill-rule="nonzero" node-id="38" stroke="none" target-height="139.11707" target-width="209.44" target-x="372.323" target-y="488.78296"></path></svg>